<!--?xml version="1.0" encoding="utf-8"?-->
<!-- Generator: Adobe Illustrator 18.1.1, SVG Export Plug-In . SVG Version: 6.00 Build 0)  -->

<svg version="1.1" id="_x32_" xmlns="http://www.w3.org/2000/svg" xmlns:xlink="http://www.w3.org/1999/xlink" x="0px" y="0px" viewBox="0 0 512 512" style="width: 512px; height: 512px; opacity: 1;" xml:space="preserve">
<style type="text/css">
	.st0{fill:#4B4B4B;}
</style>
<g>
	<path class="st0" d="M55.542,281.347v118.61c0,32.571,24.824,61.89,64.435,82.394V333.454
		C91.426,319.871,69.096,301.997,55.542,281.347z" style="fill: rgb(75, 75, 75);"></path>
	<path class="st0" d="M144.445,493.174c28.181,10.588,61.444,17.252,97.294,18.657V361.06c-35.679-1.318-68.73-7.542-97.294-17.582
		V493.174z" style="fill: rgb(75, 75, 75);"></path>
	<path class="st0" d="M266.201,512c37.407-1.047,72.109-7.842,101.354-18.819V343.479c-29.649,10.42-64.12,16.732-101.354,17.721
		V512z" style="fill: rgb(75, 75, 75);"></path>
	<path class="st0" d="M392.024,333.454v148.882c39.611-20.489,64.435-49.808,64.435-82.379v-118.61
		C442.912,301.997,420.578,319.871,392.024,333.454z" style="fill: rgb(75, 75, 75);"></path>
	<path class="st0" d="M256.542,251.618c-7.667,8.794-6.744,22.129,2.043,29.788c8.787,7.674,22.133,6.751,29.792-2.036
		c7.66-8.802,6.744-22.136-2.043-29.803C277.54,241.908,264.202,242.83,256.542,251.618z" style="fill: rgb(75, 75, 75);"></path>
	<path class="st0" d="M318.378,195.666l-29.368,41.46l9.289,8.091l37.048-34.767c10.838-10.156,21.151-20.855,30.909-32.043
		l78.641-90.244c4.671-5.36,4.107-13.474-1.245-18.145l-0.952-0.835c-5.352-4.664-13.473-4.1-18.145,1.246l-78.64,90.243
		C336.153,171.875,326.967,183.547,318.378,195.666z" style="fill: rgb(75, 75, 75);"></path>
	<path class="st0" d="M211.197,221.009c-10.731-4.554-23.136,0.454-27.691,11.189c-4.554,10.734,0.458,23.139,11.189,27.693
		c10.732,4.555,23.128-0.454,27.69-11.188C226.94,237.968,221.935,225.579,211.197,221.009z" style="fill: rgb(75, 75, 75);"></path>
	<path class="st0" d="M278.649,134.31c-2.212,5.214-4.57,10.384-6.986,15.539c19.903,0.937,39.322,3.617,57.453,7.872
		c1.889-2.256,3.782-4.504,5.708-6.715l14.967-17.179c-20.166-5.99-42.361-10.09-65.874-11.928L278.649,134.31z" style="fill: rgb(75, 75, 75);"></path>
	<path class="st0" d="M456.458,232.974c0-29.122-19.844-55.652-52.363-75.598l-18.468,21.191c0.531,0.278,1.08,0.557,1.6,0.85
		c28.02,15.677,44.093,35.207,44.093,53.557c0,18.365-16.073,37.887-44.093,53.572c-34.017,19.024-81.844,29.95-131.231,29.95
		c-49.376,0-97.207-10.926-131.22-29.95c-28.024-15.685-44.1-35.207-44.1-53.572c0-18.35,16.076-37.88,44.1-53.557
		c23.706-13.268,54.132-22.583,87.109-27.013c3.211-10.098,6.777-20.152,10.695-30.03c-94.794,8.912-167.038,55.022-167.038,110.6
		c0,61.956,89.749,112.181,200.455,112.181C366.717,345.156,456.458,294.93,456.458,232.974z" style="fill: rgb(75, 75, 75);"></path>
	<path class="st0" d="M221.218,213.16l24.447-44.536c7.15-13.034,13.638-26.391,19.438-40.069L311.871,18.38
		c2.779-6.547-0.271-14.089-6.81-16.864l-1.164-0.49c-6.539-2.775-14.088,0.278-16.86,6.81l-46.769,110.176
		c-5.808,13.678-10.918,27.627-15.327,41.811l-15.059,48.526L221.218,213.16z" style="fill: rgb(75, 75, 75);"></path>
</g>
</svg>
