<!--?xml version="1.0" encoding="utf-8"?-->
<!-- Generator: Adobe Illustrator 18.1.1, SVG Export Plug-In . SVG Version: 6.00 Build 0)  -->

<svg version="1.1" id="_x32_" xmlns="http://www.w3.org/2000/svg" xmlns:xlink="http://www.w3.org/1999/xlink" x="0px" y="0px" viewBox="0 0 512 512" style="width: 512px; height: 512px; opacity: 1;" xml:space="preserve">
<style type="text/css">
	.st0{fill:#4B4B4B;}
</style>
<g>
	<path class="st0" d="M383.769,358.93c-8.777-14.266-18.982-26.493-25.401-36.812c-2.992-4.808-4.412-10.258-4.419-16.44
		c-0.008-7.19,2.015-15.273,5.838-23.37c4.87-10.457,10.205-23.974,10.274-37.935c-0.008-32.682-26.485-59.167-59.168-59.167
		h-33.698l-2.511-104.444H237.3l-2.503,104.444h-33.706c-32.683,0-59.16,26.485-59.168,59.167
		c0.069,13.968,5.42,27.493,10.282,37.935c3.823,8.106,5.854,16.196,5.846,23.37c-0.015,6.174-1.427,11.632-4.427,16.44
		c-6.411,10.319-16.616,22.547-25.394,36.804c-8.747,14.258-16.188,30.927-16.196,50.314c0,2.519,0.122,5.083,0.389,7.701
		c1.305,12.769,4.587,25.234,10.511,36.736c8.846,17.273,23.752,32.164,45.566,42.361C190.322,506.261,218.929,512,256,512
		c49.391,0,83.897-10.212,107.047-27.645c11.541-8.701,20.112-19.188,26.019-30.683c5.923-11.502,9.206-23.966,10.511-36.743
		c0.26-2.596,0.389-5.16,0.389-7.671C399.958,389.864,392.516,373.195,383.769,358.93z M384.021,415.349
		c-1.137,11.166-3.961,21.669-8.846,31.164c-7.366,14.227-19.249,26.378-38.308,35.369c-19.051,8.945-45.398,14.502-80.867,14.494
		c-47.329,0.008-78.279-9.869-97.628-24.501c-9.709-7.327-16.647-15.86-21.546-25.363c-4.885-9.495-7.709-19.998-8.846-31.164
		c-0.214-2.084-0.313-4.113-0.313-6.113c-0.008-15.25,5.87-29.065,13.892-42.14c7.991-13.059,17.982-25.004,25.324-36.689
		c4.717-7.549,6.808-16.12,6.801-24.73c-0.008-10.067-2.74-20.264-7.335-30.026c-4.503-9.48-8.861-21.54-8.793-31.279
		c0-12.051,4.862-22.882,12.754-30.789c7.9-7.892,18.731-12.747,30.782-12.747h33.339l-0.932,38.758H278.5l-0.931-38.758h33.324
		c12.044,0,22.882,4.854,30.782,12.747c7.891,7.907,12.746,18.738,12.754,30.789c0.069,9.739-4.274,21.807-8.785,31.279
		c-4.587,9.754-7.32,19.951-7.328,30.026c-0.016,8.617,2.076,17.188,6.801,24.73c7.335,11.685,17.334,23.63,25.324,36.697
		c8.014,13.066,13.899,26.897,13.892,42.154C384.334,411.258,384.235,413.281,384.021,415.349z" style="fill: rgb(75, 75, 75);"></path>
	<path class="st0" d="M256,259.164c-26.805,0.008-48.527,21.73-48.527,48.536c0,26.798,21.722,48.52,48.527,48.528
		c26.806-0.008,48.528-21.73,48.528-48.528C304.528,280.894,282.805,259.172,256,259.164z M284.79,336.482
		c-7.38,7.373-17.531,11.922-28.79,11.922c-11.258,0-21.409-4.549-28.79-11.922c-7.373-7.374-11.921-17.525-11.921-28.782
		c0-11.258,4.548-21.41,11.921-28.79c7.381-7.374,17.532-11.922,28.79-11.922c11.259,0,21.41,4.549,28.79,11.922
		c7.374,7.38,11.922,17.532,11.922,28.79C296.712,318.957,292.163,329.108,284.79,336.482z" style="fill: rgb(75, 75, 75);"></path>
	<path class="st0" d="M256,276.917c-16.974,0-30.782,13.815-30.782,30.782c0,16.975,13.807,30.782,30.782,30.782
		c16.975,0,30.782-13.808,30.782-30.782C286.782,290.732,272.975,276.917,256,276.917z" style="fill: rgb(75, 75, 75);"></path>
	<rect x="234.179" class="st0" width="43.635" height="64.48" style="fill: rgb(75, 75, 75);"></rect>
	<rect x="213.09" y="1.725" class="st0" width="12.869" height="20.998" style="fill: rgb(75, 75, 75);"></rect>
	<rect x="213.09" y="41.75" class="st0" width="12.869" height="20.998" style="fill: rgb(75, 75, 75);"></rect>
	<rect x="286.034" y="1.725" class="st0" width="12.868" height="20.998" style="fill: rgb(75, 75, 75);"></rect>
	<rect x="286.034" y="41.75" class="st0" width="12.868" height="20.998" style="fill: rgb(75, 75, 75);"></rect>
	<rect x="222.783" y="411.708" class="st0" width="66.434" height="10.289" style="fill: rgb(75, 75, 75);"></rect>
</g>
</svg>
