<!--?xml version="1.0" encoding="utf-8"?-->
<!-- Generator: Adobe Illustrator 18.1.1, SVG Export Plug-In . SVG Version: 6.00 Build 0)  -->

<svg version="1.1" id="_x32_" xmlns="http://www.w3.org/2000/svg" xmlns:xlink="http://www.w3.org/1999/xlink" x="0px" y="0px" viewBox="0 0 512 512" style="width: 512px; height: 512px; opacity: 1;" xml:space="preserve">
<style type="text/css">
	.st0{fill:#4B4B4B;}
</style>
<g>
	<path class="st0" d="M452.859,25.431H59.141C26.471,25.446,0.016,51.91,0,84.564v342.88c0.016,32.655,26.471,59.117,59.141,59.125
		h393.718c32.67-0.008,59.125-26.47,59.141-59.125V84.564C511.984,51.91,485.529,25.446,452.859,25.431z M433.437,84.323
		c9.906,0,17.943,8.037,17.943,17.943c0,9.906-8.037,17.943-17.943,17.943c-9.906,0-17.943-8.038-17.943-17.943
		C415.494,92.36,423.53,84.323,433.437,84.323z M347.709,84.323c9.906,0,17.943,8.037,17.943,17.943
		c0,9.906-8.037,17.943-17.943,17.943s-17.943-8.038-17.943-17.943C329.766,92.36,337.803,84.323,347.709,84.323z M122.112,461.048
		H59.141c-9.33,0-17.647-3.738-23.769-9.844c-6.105-6.122-9.844-14.438-9.844-23.761V182.012h69.218v126.948
		c0,7.795,6.324,14.135,14.127,14.135h13.239V461.048z M248.025,461.048H138.062V323.096h14.844c7.803,0,14.127-6.34,14.127-14.135
		V182.012h53.627v126.948c0,7.795,6.323,14.135,14.126,14.135h13.24V461.048z M373.938,461.048H263.975V323.096h14.851
		c7.795,0,14.119-6.34,14.119-14.135V182.012h53.634v126.948c0,7.795,6.324,14.135,14.119,14.135h13.24V461.048z M486.472,427.444
		c0,9.322-3.739,17.639-9.844,23.761c-6.122,6.105-14.438,9.844-23.769,9.844h-62.971V323.096h14.858
		c7.804,0,14.127-6.34,14.127-14.135V182.012h67.598V427.444z" style="fill: rgb(255, 255, 255);"></path>
</g>
</svg>
