<!--?xml version="1.0" encoding="utf-8"?-->
<!-- Generator: Adobe Illustrator 18.1.1, SVG Export Plug-In . SVG Version: 6.00 Build 0)  -->

<svg version="1.1" id="_x32_" xmlns="http://www.w3.org/2000/svg" xmlns:xlink="http://www.w3.org/1999/xlink" x="0px" y="0px" viewBox="0 0 512 512" style="width: 512px; height: 512px; opacity: 1;" xml:space="preserve">
<style type="text/css">
	.st0{fill:#4B4B4B;}
</style>
<g>
	<path class="st0" d="M167.404,186.566c-6.602-1.069-13.006-2.26-19.188-3.557l62.992,165.446l31.615-155.256
		C215.932,192.626,190.455,190.314,167.404,186.566z" style="fill: rgb(255, 255, 255);"></path>
	<path class="st0" d="M224.763,355.37c9.808,1.046,20.303,1.634,31.241,1.634c10.93,0,21.432-0.58,31.24-1.634l-31.248-153.432
		L224.763,355.37z" style="fill: rgb(255, 255, 255);"></path>
	<path class="st0" d="M300.785,348.455l63.008-165.468c-27.799,5.838-60.016,9.456-94.623,10.204L300.785,348.455z" style="fill: rgb(255, 255, 255);"></path>
	<path class="st0" d="M460.475,57.26c-3.03-4.869-7.06-9.227-11.861-13.234c-8.411-6.999-19.226-13.029-32.087-18.372
		c-19.304-7.969-43.255-14.334-70.511-18.761C318.767,2.466,288.252,0,256.004,0c-28.089,0-54.856,1.87-79.296,5.275
		c-18.326,2.549-35.339,5.968-50.643,10.121c-22.951,6.259-42.01,14.082-56.07,23.653C62.974,43.858,57.158,49.132,52.891,55.2
		c-2.13,3.03-3.855,6.274-5.053,9.724c-1.198,3.442-1.847,7.09-1.847,10.777c-0.008,40.492,6.274,75.22,15.708,105.163
		c14.151,44.933,35.362,79.082,52.597,106.116c8.618,13.495,16.219,25.234,21.448,35.386c2.626,5.06,4.64,9.724,5.961,13.922
		c1.335,4.214,1.969,7.938,1.969,11.288c0,17.09-1.885,34.103-4.335,52.032c-2.458,17.937-5.488,36.766-7.632,57.39v-0.007
		c-0.214,2.046-0.321,4.068-0.321,6.075c0.008,7.755,1.603,15.281,5.466,21.814c1.93,3.252,4.442,6.214,7.51,8.64
		c3.061,2.427,6.648,4.305,10.579,5.465C174.578,504.863,208.3,512,256.004,512c47.696,0,81.418-7.137,101.057-13.014
		c3.93-1.16,7.518-3.038,10.578-5.465c4.61-3.64,7.93-8.472,9.991-13.708c2.076-5.259,2.977-10.923,2.977-16.746
		c0-1.999-0.099-4.03-0.313-6.068c-2.145-20.623-5.175-39.453-7.632-57.39c-2.45-17.93-4.335-34.942-4.335-52.032
		c0-4.464,1.137-9.624,3.518-15.639c4.122-10.518,12.014-23.303,21.646-38.347c14.426-22.623,32.607-50.498,47.147-86.02
		c14.541-35.515,25.387-78.732,25.371-131.87C466.024,69.122,463.925,62.786,460.475,57.26z M436.944,156.172
		c-10.327,6.778-23.356,12.655-38.706,17.723c-2.328,0.763-4.717,1.511-7.152,2.244c0.168,0.596,0.313,1.19,0.404,1.816
		c0.008,0.016,0.733,5.037,1.863,12.762c1.129,7.724,2.641,18.151,4.221,28.912c1.198,8.251,2.427,16.655,3.534,24.25
		c-3.969,6.984-7.961,13.601-11.892,19.929c-2.732-18.662-8.838-60.52-11.227-76.93l-62.328,163.675
		c6.961-1.695,13.136-3.656,18.265-5.786c5.732-2.359,10.151-4.954,12.877-7.244c1.557-1.298,2.556-2.481,3.076-3.328
		c0.603-0.992,0.634-1.427,0.648-1.763h0.565c-1.42,4.984-2.29,10.022-2.29,15.143c0,3.908,0.099,7.801,0.267,11.671
		c-6.854,3.618-14.96,6.595-24.165,9.113c-8.189,2.221-17.242,4.03-26.958,5.389c-12.96,1.802-27.112,2.794-41.941,2.794
		c-17.044,0-33.172-1.305-47.636-3.648c-14.471-2.351-27.256-5.732-37.766-10.076c-2.724-1.129-5.258-2.35-7.67-3.633
		c0.168-3.847,0.274-7.709,0.274-11.61c0-5.121-0.854-10.144-2.274-15.143h0.542c0,0.206,0.024,0.397,0.138,0.741
		c0.123,0.336,0.344,0.794,0.764,1.405c0.832,1.206,2.526,2.907,5.129,4.67c5.182,3.588,13.831,7.32,24.714,10.258
		c1.321,0.351,2.718,0.703,4.114,1.031l-62.321-163.66c-2.389,16.41-8.495,58.268-11.227,76.93
		c-3.932-6.328-7.923-12.96-11.892-19.937c2.564-17.509,5.763-39.522,7.755-53.154c1.122-7.724,1.855-12.746,1.862-12.762
		c0.084-0.626,0.229-1.236,0.405-1.832c-8.152-2.427-15.739-5.09-22.684-7.968c-8.778-3.633-16.525-7.602-23.15-11.953
		c-1.862-7.51-3.495-15.311-4.869-23.432c1.984,2.504,4.618,5.091,7.93,7.663c8.992,7.022,22.822,13.831,40.202,19.548
		c34.79,11.464,83.676,18.73,137.663,18.715c31.004,0,60.313-2.381,86.242-6.586c25.935-4.213,48.497-10.274,65.915-17.479
		c11.61-4.808,20.914-10.136,27.332-15.509c2.58-2.152,4.672-4.305,6.312-6.382C440.439,140.861,438.806,148.662,436.944,156.172z
		 M95.771,135.121c0-4.8,3.9-8.694,8.701-8.694c4.808,0,8.702,3.893,8.702,8.694c0,4.809-3.893,8.702-8.702,8.702
		C99.671,143.823,95.771,139.93,95.771,135.121z M247.303,158.172c0-4.801,3.892-8.701,8.701-8.701c4.8,0,8.694,3.9,8.694,8.701
		c0,4.801-3.893,8.701-8.694,8.701C251.195,166.873,247.303,162.973,247.303,158.172z M398.834,129.427
		c0-4.808,3.885-8.701,8.694-8.701c4.801,0,8.701,3.893,8.701,8.701c0,4.809-3.9,8.702-8.701,8.702
		C402.719,138.129,398.834,134.236,398.834,129.427z M446.156,90.791c-0.87,0.748-1.718,1.496-2.656,2.22
		c-10.808,8.404-25.913,15.64-44.376,21.738c-36.927,12.151-87.379,19.548-143.12,19.554c-36.576,0-70.892-3.198-100.584-8.816
		c-29.698-5.633-54.756-13.647-72.998-23.516c-6.388-3.473-11.922-7.167-16.556-11.144c-0.19-4.709-0.32-9.502-0.335-14.402
		c2.22,2.946,5.19,5.946,8.968,8.876c9.449,7.374,23.669,14.327,41.438,20.174c35.545,11.716,85.218,19.066,140.067,19.066
		c35.995,0,69.747-3.16,98.759-8.655c29.004-5.48,53.284-13.342,70.16-22.501c9.953-5.373,17.25-11.212,21.547-16.914
		C446.454,81.334,446.355,86.104,446.156,90.791z" style="fill: rgb(255, 255, 255);"></path>
</g>
</svg>
