<!--?xml version="1.0" encoding="utf-8"?-->
<!-- Generator: Adobe Illustrator 18.1.1, SVG Export Plug-In . SVG Version: 6.00 Build 0)  -->

<svg version="1.1" id="_x32_" xmlns="http://www.w3.org/2000/svg" xmlns:xlink="http://www.w3.org/1999/xlink" x="0px" y="0px" viewBox="0 0 512 512" style="width: 512px; height: 512px; opacity: 1;" xml:space="preserve">
<style type="text/css">
	.st0{fill:#4B4B4B;}
</style>
<g>
	<path class="st0" d="M510.991,211.357c-2.951-18.902-12.326-35.285-25.515-46.195c-13.152-10.97-29.636-16.54-46.217-16.526
		c-7.652,0-15.353,1.208-22.828,3.57c-13.849-47.882-86.072-71.83-206.98-71.83c-138.817,0-213.492,31.552-209.282,94.661
		c2.891,43.316,22.441,144.74,84.873,209.507c41.325,42.866,70.334,47.08,124.409,47.08s83.081-4.214,124.409-47.08
		c20.372-21.136,36.107-46.172,48.257-71.823c10.868,4.207,22.048,6.268,32.89,6.254c13.316,0,26.044-2.954,37.508-8
		c17.208-7.58,31.694-19.697,42.251-34.588c10.508-14.89,17.208-32.894,17.234-52.23C512,219.927,511.674,215.654,510.991,211.357z
		 M209.451,200.261c-82.477,0-149.332-16.953-149.332-37.858c0-20.911,66.855-37.864,149.332-37.864
		c82.474,0,149.332,16.953,149.332,37.864C358.783,183.308,291.924,200.261,209.451,200.261z M457.974,239.572
		c-3.547,7.851-9.924,15.438-17.673,20.702c-7.768,5.301-16.592,8.233-25.294,8.218c-4.705-0.03-9.489-0.914-14.464-2.834
		c5.691-17.882,9.875-35.038,12.765-50.304c3.543-5.563,7.502-9.38,11.498-11.899c4.852-3.044,9.834-4.334,14.453-4.334
		c5.439,0.008,10.215,1.755,13.889,4.822c3.637,3.119,6.65,7.483,8,15.386c0.251,1.597,0.375,3.194,0.375,4.828
		C461.531,229.09,460.358,234.353,457.974,239.572z" style="fill: rgb(255, 255, 255);"></path>
</g>
</svg>
