<!--?xml version="1.0" encoding="utf-8"?-->
<!-- Generator: Adobe Illustrator 18.1.1, SVG Export Plug-In . SVG Version: 6.00 Build 0)  -->

<svg version="1.1" id="_x32_" xmlns="http://www.w3.org/2000/svg" xmlns:xlink="http://www.w3.org/1999/xlink" x="0px" y="0px" viewBox="0 0 512 512" style="width: 512px; height: 512px; opacity: 1;" xml:space="preserve">
<style type="text/css">
	.st0{fill:#4B4B4B;}
</style>
<g>
	<path class="st0" d="M225.474,417.434c-14.997-0.018-30.099,5.766-41.536,17.183l-36.285,36.314
		c-9.032,9.012-20.744,13.46-32.581,13.479c-11.838-0.02-23.542-4.467-32.582-13.479c-9.02-9.04-13.479-20.754-13.488-32.601
		c0.009-11.827,4.468-23.541,13.488-32.581l-19.493-19.493c-14.357,14.348-21.584,33.278-21.574,52.074
		c-0.02,18.806,7.217,37.737,21.574,52.094C77.345,504.763,96.265,512,115.072,512c18.806,0,37.736-7.237,52.084-21.575
		l36.285-36.304c6.12-6.101,14.014-9.098,22.033-9.126c8.019,0.028,15.913,3.025,22.023,9.135
		c6.464,6.464,9.451,14.921,9.108,23.388l27.55,1.194c0.707-15.828-5.06-32-17.145-44.075
		C255.573,423.201,240.451,417.416,225.474,417.434z" style="fill: rgb(255, 255, 255);"></path>
	<path class="st0" d="M439.548,31.022c-39.12-39.12-101.219-41.23-142.859-6.396l149.255,149.265
		C480.788,132.251,478.677,70.143,439.548,31.022z" style="fill: rgb(255, 255, 255);"></path>
	<path class="st0" d="M256.48,100.939L369.65,214.1c22.701-1.584,44.982-10.462,63.063-26.614L283.104,37.867
		C266.943,55.939,258.075,78.22,256.48,100.939z" style="fill: rgb(255, 255, 255);"></path>
	<path class="st0" d="M51.637,347.47l71.472,71.472l222.494-201.578l-92.379-92.388L51.637,347.47z M274.723,210.482l-29.25,29.26
		l-14.625-14.644l29.25-29.23L274.723,210.482z" style="fill: rgb(255, 255, 255);"></path>
</g>
</svg>
